# xmcd
#
# Track frame offsets:
#	150
#	16692
#	34070
#	54540
#	72788
#	85252
#	103762
#	121817
#	138198
#	156087
#	176541
#	194830
#	214927
#	233733
#	252396
#
# Disc length: 3634 seconds
#
# Revision: 0
# Processed by: cddbd v1.5.2PL0 Copyright (c) Steve Scherf et al.
# Submitted via: EasyCDDAExtractor 16.0.9.1
#
DISCID=cb0e300f
DTITLE=感謝每天 II
DYEAR=2007
DGENRE=Pop
TTITLE0=張敬軒 - 遇見神
TTITLE1=王菀之 - 滿天星
TTITLE2=麥映緹 - 以馬內利
TTITLE3=趙芬妮 - 平凡裡遇著祢
TTITLE4=Eternity Girls - 愛的經典
TTITLE5=文雅言 - 只想跟隨祢
TTITLE6=羅敏莊 - 美麗傳奇
TTITLE7=鄧婉玲 - 神蹟
TTITLE8=郭靜 - 生命因你動聽
TTITLE9=Eternity - 愛永恆
TTITLE10=John Laudon 劉諾生 - 友情永在
TTITLE11=李健達 - 回家 (2007 Version)
TTITLE12=Eternity - 愛滲我心田
TTITLE13=鄧惠欣 - 窰匠
TTITLE14=邰正宵 - 源來是愛
EXTD=
EXTT0=
EXTT1=
EXTT2=
EXTT3=
EXTT4=
EXTT5=
EXTT6=
EXTT7=
EXTT8=
EXTT9=
EXTT10=
EXTT11=
EXTT12=
EXTT13=
EXTT14=
PLAYORDER=
